<svg xmlns="http://www.w3.org/2000/svg" version="1.1" xmlns:xlink="http://www.w3.org/1999/xlink" xmlns:svgjs="http://svgjs.dev/svgjs" width="24px" height="24px"><svg xmlns="http://www.w3.org/2000/svg" height="24px" viewBox="0 -960 960 960" width="24px" fill="#e3e3e3"><path d="M200-80q-33 0-56.5-23.5T120-160v-451q-18-11-29-28.5T80-680v-120q0-33 23.5-56.5T160-880h640q33 0 56.5 23.5T880-800v120q0 23-11 40.5T840-611v451q0 33-23.5 56.5T760-80H200Zm0-520v440h560v-440H200Zm-40-80h640v-120H160v120Zm200 280h240v-80H360v80Zm120 20Z"></path></svg><style>@media (prefers-color-scheme: light) { :root { filter: contrast(1) brightness(0.5); } }
@media (prefers-color-scheme: dark) { :root { filter: none; } }
</style></svg>